<svg width="2000px" height="1773px"
 viewBox="0.00 0.00 1082.37 959.11" xmlns="http://www.w3.org/2000/svg" xmlns:xlink="http://www.w3.org/1999/xlink">
<g id="graph0" class="graph" transform="scale(1.0 1.0) rotate(0) translate(4 955.11)">
<title>ContextMapGraph</title>
<polygon fill="white" stroke="transparent" points="-4,4 -4,-955.11 1078.37,-955.11 1078.37,4 -4,4"/>
<!-- EmpaquetadoContext -->
<g id="node1" class="node">
<title>EmpaquetadoContext</title>
<polygon fill="none" stroke="black" stroke-width="2" points="530.6,-466.67 532.58,-469.48 534.12,-472.3 535.22,-475.11 535.87,-477.9 536.06,-480.66 535.8,-483.39 535.08,-486.06 533.89,-488.67 532.25,-491.22 530.14,-493.68 527.59,-496.06 524.58,-498.34 521.14,-500.53 517.26,-502.6 512.97,-504.56 508.26,-506.4 503.16,-508.12 497.68,-509.72 491.84,-511.18 485.66,-512.52 479.14,-513.72 472.33,-514.78 465.22,-515.72 457.86,-516.52 450.26,-517.19 442.45,-517.73 434.45,-518.14 426.29,-518.43 417.99,-518.59 409.58,-518.64 401.09,-518.57 392.55,-518.39 383.97,-518.1 375.4,-517.71 366.85,-517.22 358.35,-516.64 349.94,-515.97 341.62,-515.21 333.44,-514.37 325.41,-513.46 317.56,-512.48 309.9,-511.42 302.47,-510.3 295.29,-509.12 288.36,-507.88 281.72,-506.59 275.37,-505.24 269.34,-503.85 263.64,-502.4 258.28,-500.91 253.28,-499.38 248.64,-497.81 244.38,-496.19 240.51,-494.54 237.03,-492.84 233.94,-491.11 231.26,-489.35 228.99,-487.55 227.12,-485.71 225.66,-483.85 224.62,-481.95 223.98,-480.02 223.75,-478.06 223.93,-476.08 224.5,-474.08 225.47,-472.05 226.83,-470 228.58,-467.94 230.7,-465.86 233.19,-463.78 236.04,-461.69 239.24,-459.6 242.78,-457.51 246.66,-455.44 250.86,-453.38 255.36,-451.34 260.17,-449.33 265.26,-447.36 270.63,-445.43 276.25,-443.54 282.13,-441.72 288.24,-439.95 294.57,-438.26 301.11,-436.65 307.84,-435.13 314.75,-433.7 321.81,-432.37 329.03,-431.15 336.38,-430.05 343.84,-429.08 351.4,-428.23 359.04,-427.52 366.74,-426.96 374.49,-426.54 382.27,-426.27 390.06,-426.15 397.84,-426.2 405.59,-426.41 413.3,-426.78 420.94,-427.31 428.5,-428.01 435.96,-428.87 443.29,-429.89 450.48,-431.07 457.5,-432.41 464.34,-433.89 470.98,-435.53 477.4,-437.31 483.58,-439.22 489.5,-441.26 495.13,-443.41 500.48,-445.68 505.51,-448.06 510.21,-450.52 514.56,-453.07 518.55,-455.69 522.16,-458.37 525.38,-461.1 528.2,-463.87 530.6,-466.67"/>
<text text-anchor="middle" x="377.42" y="-470.76" font-family="sans-serif" font-size="16.00">EmpaquetadoContext</text>
</g>
<!-- RutasContext -->
<g id="node2" class="node">
<title>RutasContext</title>
<polygon fill="none" stroke="black" stroke-width="2" points="357.97,-327.77 358.24,-330.64 358.21,-333.5 357.88,-336.33 357.25,-339.13 356.31,-341.88 355.08,-344.56 353.54,-347.18 351.71,-349.72 349.6,-352.16 347.2,-354.51 344.51,-356.76 341.56,-358.89 338.34,-360.9 334.87,-362.78 331.16,-364.54 327.2,-366.15 323.03,-367.63 318.64,-368.97 314.05,-370.16 309.27,-371.21 304.32,-372.11 299.21,-372.87 293.96,-373.48 288.58,-373.95 283.09,-374.28 277.5,-374.47 271.83,-374.52 266.1,-374.44 260.32,-374.24 254.51,-373.91 248.69,-373.47 242.87,-372.91 237.08,-372.25 231.33,-371.48 225.63,-370.62 220,-369.67 214.47,-368.63 209.03,-367.51 203.72,-366.32 198.55,-365.06 193.52,-363.73 188.66,-362.35 183.98,-360.91 179.48,-359.42 175.19,-357.89 171.12,-356.31 167.27,-354.7 163.66,-353.05 160.29,-351.37 157.17,-349.65 154.32,-347.91 151.74,-346.15 149.43,-344.36 147.4,-342.55 145.66,-340.72 144.2,-338.87 143.04,-337 142.17,-335.11 141.6,-333.21 141.32,-331.3 141.33,-329.37 141.64,-327.43 142.24,-325.49 143.12,-323.53 144.3,-321.57 145.75,-319.6 147.48,-317.63 149.48,-315.66 151.74,-313.7 154.26,-311.75 157.04,-309.8 160.05,-307.87 163.3,-305.96 166.77,-304.08 170.46,-302.22 174.35,-300.4 178.43,-298.63 182.7,-296.9 187.15,-295.22 191.75,-293.6 196.5,-292.05 201.39,-290.57 206.41,-289.18 211.54,-287.87 216.76,-286.66 222.07,-285.55 227.45,-284.54 232.89,-283.66 238.38,-282.89 243.89,-282.26 249.43,-281.75 254.96,-281.39 260.49,-281.17 265.99,-281.09 271.45,-281.17 276.86,-281.4 282.2,-281.79 287.46,-282.34 292.62,-283.05 297.68,-283.92 302.61,-284.94 307.41,-286.12 312.07,-287.46 316.56,-288.95 320.88,-290.58 325.02,-292.36 328.96,-294.27 332.69,-296.32 336.2,-298.48 339.49,-300.77 342.54,-303.16 345.34,-305.64 347.89,-308.21 350.17,-310.86 352.18,-313.58 353.91,-316.35 355.36,-319.17 356.52,-322.02 357.39,-324.89 357.97,-327.77"/>
<text text-anchor="middle" x="249.42" y="-325.01" font-family="sans-serif" font-size="16.00">RutasContext</text>
</g>
<!-- EmpaquetadoContext&#45;&gt;RutasContext -->
<g id="edge1" class="edge">
<title>EmpaquetadoContext&#45;&gt;RutasContext</title>
<path fill="none" stroke="black" stroke-width="2" d="M316.33,-433.15C307.02,-425.48 298.01,-417.04 290.42,-408.11 281.98,-398.16 274.62,-386.19 268.56,-374.64"/>
<text text-anchor="middle" x="365.92" y="-398.51" font-family="sans-serif" font-size="12.00"> &#160;&#160;&#160;&#160;&#160;&#160;&#160;&#160;&#160;&#160;&#160;&#160;&#160;&#160;&#160;&#160;&#160;&#160;&#160;&#160;&#160;&#160;&#160;&#160;&#160;&#160;&#160;&#160;&#160;&#160;&#160;&#160;&#160;&#160;&#160;&#160;&#160;&#160;&#160;</text>
<polygon fill="white" stroke="transparent" points="261.56,-365.64 261.56,-382.64 275.56,-382.64 275.56,-365.64 261.56,-365.64"/>
<text text-anchor="start" x="263.56" y="-371.04" font-family="sans-serif" font-size="12.00">D</text>
<polygon fill="white" stroke="transparent" points="309.33,-424.15 309.33,-441.15 323.33,-441.15 323.33,-424.15 309.33,-424.15"/>
<text text-anchor="start" x="311.33" y="-429.55" font-family="sans-serif" font-size="12.00">U</text>
</g>
<!-- EntregasContext -->
<g id="node5" class="node">
<title>EntregasContext</title>
<polygon fill="none" stroke="black" stroke-width="2" points="385.7,-314.1 388.35,-311.39 391.31,-308.75 394.58,-306.17 398.13,-303.66 401.97,-301.25 406.06,-298.94 410.41,-296.73 414.99,-294.64 419.8,-292.68 424.81,-290.84 430.02,-289.15 435.41,-287.6 440.96,-286.2 446.65,-284.95 452.48,-283.86 458.43,-282.93 464.47,-282.17 470.6,-281.56 476.8,-281.12 483.05,-280.83 489.34,-280.71 495.66,-280.75 501.98,-280.94 508.29,-281.28 514.58,-281.77 520.83,-282.4 527.03,-283.17 533.17,-284.07 539.22,-285.09 545.18,-286.24 551.03,-287.49 556.77,-288.84 562.36,-290.3 567.82,-291.84 573.11,-293.46 578.23,-295.16 583.16,-296.92 587.91,-298.74 592.44,-300.61 596.76,-302.53 600.85,-304.48 604.7,-306.47 608.3,-308.48 611.64,-310.51 614.72,-312.55 617.52,-314.6 620.03,-316.65 622.26,-318.71 624.18,-320.75 625.8,-322.79 627.11,-324.82 628.1,-326.83 628.76,-328.82 629.1,-330.79 629.11,-332.75 628.79,-334.67 628.13,-336.57 627.14,-338.45 625.82,-340.29 624.16,-342.11 622.16,-343.89 619.84,-345.65 617.19,-347.37 614.23,-349.05 610.94,-350.71 607.35,-352.32 603.45,-353.9 599.27,-355.43 594.8,-356.93 590.06,-358.38 585.06,-359.78 579.82,-361.13 574.34,-362.44 568.64,-363.68 562.74,-364.87 556.66,-366 550.4,-367.05 544,-368.04 537.46,-368.96 530.81,-369.79 524.07,-370.55 517.25,-371.21 510.38,-371.78 503.49,-372.25 496.58,-372.62 489.68,-372.89 482.82,-373.04 476.01,-373.08 469.28,-372.99 462.65,-372.79 456.14,-372.46 449.76,-371.99 443.55,-371.4 437.51,-370.68 431.67,-369.81 426.05,-368.82 420.66,-367.68 415.52,-366.42 410.65,-365.02 406.05,-363.48 401.76,-361.82 397.76,-360.03 394.09,-358.12 390.75,-356.09 387.74,-353.95 385.08,-351.7 382.78,-349.36 380.83,-346.92 379.24,-344.4 378.02,-341.81 377.17,-339.16 376.68,-336.45 376.56,-333.69 376.81,-330.9 377.42,-328.09 378.38,-325.27 379.7,-322.45 381.36,-319.64 383.36,-316.85 385.7,-314.1"/>
<text text-anchor="middle" x="504.42" y="-325.01" font-family="sans-serif" font-size="16.00">EntregasContext</text>
</g>
<!-- EmpaquetadoContext&#45;&gt;EntregasContext -->
<g id="edge2" class="edge">
<title>EmpaquetadoContext&#45;&gt;EntregasContext</title>
<path fill="none" stroke="black" stroke-width="2" d="M427.02,-427.62C433.37,-421.22 439.66,-414.61 445.42,-408.11 455.02,-397.28 464.74,-385.01 473.46,-373.45"/>
<text text-anchor="middle" x="530.92" y="-398.51" font-family="sans-serif" font-size="12.00"> &#160;&#160;&#160;&#160;&#160;&#160;&#160;&#160;&#160;&#160;&#160;&#160;&#160;&#160;&#160;&#160;&#160;&#160;&#160;&#160;&#160;&#160;&#160;&#160;&#160;&#160;&#160;&#160;&#160;&#160;&#160;&#160;&#160;&#160;&#160;&#160;&#160;&#160;&#160;</text>
<polygon fill="white" stroke="transparent" points="466.46,-364.45 466.46,-381.45 480.46,-381.45 480.46,-364.45 466.46,-364.45"/>
<text text-anchor="start" x="468.46" y="-369.85" font-family="sans-serif" font-size="12.00">D</text>
<polygon fill="white" stroke="transparent" points="420.02,-418.62 420.02,-435.62 434.02,-435.62 434.02,-418.62 420.02,-418.62"/>
<text text-anchor="start" x="422.02" y="-424.02" font-family="sans-serif" font-size="12.00">U</text>
</g>
<!-- FlotaPropiaContext -->
<g id="node3" class="node">
<title>FlotaPropiaContext</title>
<polygon fill="none" stroke="black" stroke-width="2" points="92.79,-145.28 100.86,-143.97 109.05,-142.76 117.32,-141.69 125.65,-140.74 134,-139.92 142.35,-139.23 150.65,-138.69 158.89,-138.29 167.02,-138.03 175.04,-137.92 182.9,-137.96 190.58,-138.15 198.06,-138.48 205.32,-138.96 212.34,-139.59 219.1,-140.36 225.58,-141.27 231.77,-142.32 237.66,-143.5 243.23,-144.82 248.49,-146.26 253.41,-147.82 257.99,-149.5 262.24,-151.28 266.14,-153.16 269.7,-155.14 272.92,-157.21 275.8,-159.35 278.34,-161.57 280.54,-163.84 282.42,-166.17 283.97,-168.55 285.2,-170.97 286.12,-173.41 286.74,-175.87 287.05,-178.35 287.08,-180.83 286.82,-183.3 286.29,-185.76 285.48,-188.2 284.41,-190.61 283.09,-192.99 281.51,-195.32 279.69,-197.61 277.62,-199.84 275.32,-202 272.79,-204.11 270.03,-206.13 267.04,-208.09 263.83,-209.96 260.4,-211.75 256.75,-213.45 252.88,-215.05 248.8,-216.57 244.51,-217.98 240.01,-219.3 235.3,-220.52 230.39,-221.64 225.27,-222.66 219.95,-223.57 214.44,-224.38 208.73,-225.09 202.84,-225.69 196.77,-226.2 190.53,-226.6 184.13,-226.89 177.57,-227.09 170.87,-227.19 164.04,-227.18 157.09,-227.08 150.03,-226.89 142.89,-226.59 135.68,-226.21 128.42,-225.72 121.13,-225.15 113.83,-224.49 106.54,-223.74 99.29,-222.9 92.1,-221.97 84.99,-220.96 77.99,-219.87 71.13,-218.69 64.43,-217.44 57.93,-216.1 51.64,-214.69 45.59,-213.21 39.82,-211.65 34.35,-210.02 29.2,-208.32 24.4,-206.56 19.97,-204.74 15.94,-202.85 12.32,-200.91 9.14,-198.92 6.41,-196.87 4.15,-194.78 2.38,-192.65 1.11,-190.48 0.34,-188.28 0.08,-186.05 0.34,-183.8 1.12,-181.53 2.43,-179.25 4.25,-176.97 6.59,-174.68 9.43,-172.41 12.77,-170.15 16.6,-167.91 20.89,-165.7 25.64,-163.52 30.81,-161.38 36.4,-159.3 42.38,-157.27 48.72,-155.31 55.39,-153.42 62.38,-151.61 69.64,-149.88 77.15,-148.25 84.88,-146.71 92.79,-145.28"/>
<text text-anchor="middle" x="154.42" y="-181.01" font-family="sans-serif" font-size="16.00">FlotaPropiaContext</text>
</g>
<!-- RutasContext&#45;&gt;FlotaPropiaContext -->
<g id="edge3" class="edge">
<title>RutasContext&#45;&gt;FlotaPropiaContext</title>
<path fill="none" stroke="black" stroke-width="2" d="M202.17,-290.02C193.74,-281.65 185.68,-272.32 179.42,-262.51 172.64,-251.88 167.54,-239.25 163.78,-227.33"/>
<text text-anchor="middle" x="254.92" y="-252.91" font-family="sans-serif" font-size="12.00"> &#160;&#160;&#160;&#160;&#160;&#160;&#160;&#160;&#160;&#160;&#160;&#160;&#160;&#160;&#160;&#160;&#160;&#160;&#160;&#160;&#160;&#160;&#160;&#160;&#160;&#160;&#160;&#160;&#160;&#160;&#160;&#160;&#160;&#160;&#160;&#160;&#160;&#160;&#160;</text>
<polygon fill="white" stroke="transparent" points="156.78,-218.33 156.78,-235.33 170.78,-235.33 170.78,-218.33 156.78,-218.33"/>
<text text-anchor="start" x="158.78" y="-223.73" font-family="sans-serif" font-size="12.00">D</text>
<polygon fill="white" stroke="transparent" points="195.17,-281.02 195.17,-298.02 209.17,-298.02 209.17,-281.02 195.17,-281.02"/>
<text text-anchor="start" x="197.17" y="-286.42" font-family="sans-serif" font-size="12.00">U</text>
</g>
<!-- FlotaTercerosContext -->
<g id="node4" class="node">
<title>FlotaTercerosContext</title>
<polygon fill="none" stroke="black" stroke-width="2" points="271.27,-88.08 261.58,-88.54 251.88,-88.88 242.22,-89.09 232.64,-89.18 223.17,-89.14 213.86,-88.97 204.73,-88.67 195.82,-88.24 187.17,-87.69 178.8,-87.01 170.74,-86.21 163.02,-85.28 155.67,-84.23 148.7,-83.06 142.13,-81.78 135.97,-80.39 130.26,-78.89 124.99,-77.28 120.17,-75.58 115.81,-73.79 111.92,-71.91 108.49,-69.95 105.53,-67.91 103.04,-65.8 101,-63.63 99.42,-61.41 98.28,-59.14 97.57,-56.82 97.29,-54.47 97.41,-52.1 97.94,-49.7 98.84,-47.3 100.12,-44.89 101.74,-42.48 103.7,-40.08 105.98,-37.7 108.56,-35.35 111.43,-33.03 114.58,-30.75 117.98,-28.51 121.62,-26.33 125.49,-24.21 129.57,-22.15 133.85,-20.16 138.33,-18.25 142.98,-16.42 147.8,-14.67 152.79,-13.02 157.92,-11.46 163.2,-10 168.62,-8.64 174.16,-7.39 179.84,-6.24 185.63,-5.2 191.55,-4.28 197.57,-3.47 203.71,-2.77 209.95,-2.2 216.29,-1.73 222.73,-1.39 229.27,-1.16 235.89,-1.05 242.59,-1.05 249.37,-1.17 256.22,-1.4 263.13,-1.75 270.1,-2.2 277.1,-2.77 284.14,-3.44 291.19,-4.21 298.25,-5.09 305.29,-6.07 312.31,-7.14 319.29,-8.31 326.19,-9.57 333.02,-10.91 339.73,-12.34 346.32,-13.84 352.76,-15.43 359.01,-17.08 365.07,-18.8 370.9,-20.59 376.48,-22.44 381.77,-24.34 386.77,-26.29 391.43,-28.29 395.73,-30.34 399.65,-32.42 403.17,-34.53 406.26,-36.67 408.9,-38.83 411.07,-41.01 412.76,-43.21 413.93,-45.41 414.59,-47.62 414.71,-49.82 414.3,-52.02 413.33,-54.2 411.8,-56.36 409.72,-58.5 407.08,-60.61 403.88,-62.69 400.14,-64.72 395.85,-66.71 391.04,-68.64 385.71,-70.52 379.89,-72.34 373.59,-74.09 366.84,-75.77 359.66,-77.37 352.08,-78.88 344.13,-80.31 335.84,-81.65 327.24,-82.89 318.37,-84.03 309.27,-85.07 299.97,-85.99 290.51,-86.81 280.93,-87.5 271.27,-88.08"/>
<text text-anchor="middle" x="249.42" y="-40.76" font-family="sans-serif" font-size="16.00">FlotaTercerosContext</text>
</g>
<!-- RutasContext&#45;&gt;FlotaTercerosContext -->
<g id="edge4" class="edge">
<title>RutasContext&#45;&gt;FlotaTercerosContext</title>
<path fill="none" stroke="black" stroke-width="2" d="M312.5,-287.23C319.73,-279.89 326.06,-271.64 330.42,-262.51 342.21,-237.87 401.11,-350.78 317.42,-138.12 310.34,-120.12 298.86,-102.47 287.33,-87.49"/>
<text text-anchor="middle" x="427.92" y="-181.71" font-family="sans-serif" font-size="12.00"> &#160;&#160;&#160;&#160;&#160;&#160;&#160;&#160;&#160;&#160;&#160;&#160;&#160;&#160;&#160;&#160;&#160;&#160;&#160;&#160;&#160;&#160;&#160;&#160;&#160;&#160;&#160;&#160;&#160;&#160;&#160;&#160;&#160;&#160;&#160;&#160;&#160;&#160;&#160;</text>
<polygon fill="white" stroke="transparent" points="264.33,-77.49 264.33,-96.49 280.33,-96.49 280.33,-77.49 264.33,-77.49"/>
<polyline fill="none" stroke="black" points="280.33,-77.49 280.33,-96.49 "/>
<text text-anchor="start" x="267.33" y="-83.89" font-family="sans-serif" font-size="12.00">D</text>
<polygon fill="white" stroke="transparent" points="280.33,-77.49 280.33,-96.49 310.33,-96.49 310.33,-77.49 280.33,-77.49"/>
<polygon fill="none" stroke="black" points="280.33,-77.49 280.33,-96.49 310.33,-96.49 310.33,-77.49 280.33,-77.49"/>
<text text-anchor="start" x="283.33" y="-83.89" font-family="sans-serif" font-size="12.00">ACL</text>
<polygon fill="white" stroke="transparent" points="305.5,-278.23 305.5,-295.23 319.5,-295.23 319.5,-278.23 305.5,-278.23"/>
<text text-anchor="start" x="307.5" y="-283.63" font-family="sans-serif" font-size="12.00">U</text>
</g>
<!-- FlotaPropiaContext&#45;&gt;FlotaTercerosContext -->
<g id="edge5" class="edge">
<title>FlotaPropiaContext&#45;&gt;FlotaTercerosContext</title>
<path fill="none" stroke="black" stroke-width="2" d="M186.05,-137.78C196.74,-122.22 208.64,-104.91 219.21,-89.52"/>
<text text-anchor="middle" x="247.42" y="-110.52" font-family="sans-serif" font-size="12.00">Shared Kernel</text>
</g>
<!-- InventarioBodegasContext -->
<g id="node6" class="node">
<title>InventarioBodegasContext</title>
<polygon fill="none" stroke="black" stroke-width="2" points="260.47,-791.26 251.14,-789.46 242.18,-787.59 233.65,-785.63 225.57,-783.61 217.97,-781.53 210.9,-779.4 204.38,-777.22 198.43,-775 193.08,-772.76 188.36,-770.49 184.28,-768.2 180.86,-765.91 178.11,-763.61 176.03,-761.32 174.64,-759.04 173.94,-756.78 173.92,-754.54 174.58,-752.32 175.91,-750.14 177.91,-748 180.56,-745.9 183.84,-743.85 187.74,-741.85 192.23,-739.9 197.28,-738.01 202.88,-736.18 208.99,-734.42 215.58,-732.72 222.62,-731.09 230.08,-729.53 237.92,-728.05 246.11,-726.64 254.61,-725.31 263.39,-724.05 272.41,-722.88 281.64,-721.78 291.03,-720.77 300.56,-719.85 310.19,-719.01 319.88,-718.25 329.61,-717.58 339.34,-717.01 349.05,-716.52 358.7,-716.12 368.27,-715.81 377.73,-715.6 387.07,-715.48 396.25,-715.46 405.27,-715.53 414.1,-715.7 422.73,-715.97 431.14,-716.34 439.31,-716.8 447.25,-717.37 454.94,-718.03 462.36,-718.8 469.52,-719.67 476.4,-720.63 483.01,-721.7 489.34,-722.87 495.37,-724.13 501.12,-725.49 506.58,-726.95 511.74,-728.5 516.61,-730.14 521.18,-731.87 525.45,-733.68 529.42,-735.58 533.08,-737.55 536.43,-739.6 539.47,-741.72 542.19,-743.9 544.59,-746.14 546.66,-748.43 548.41,-750.76 549.81,-753.14 550.87,-755.55 551.58,-757.98 551.93,-760.44 551.91,-762.9 551.52,-765.36 550.74,-767.82 549.57,-770.26 548,-772.68 546.03,-775.07 543.63,-777.41 540.82,-779.71 537.58,-781.95 533.91,-784.12 529.8,-786.22 525.25,-788.24 520.27,-790.16 514.84,-791.99 508.98,-793.72 502.69,-795.33 495.97,-796.83 488.83,-798.21 481.28,-799.45 473.34,-800.57 465.02,-801.54 456.33,-802.38 447.3,-803.07 437.94,-803.61 428.29,-804.01 418.37,-804.26 408.21,-804.36 397.83,-804.31 387.27,-804.11 376.57,-803.77 365.76,-803.28 354.88,-802.65 343.97,-801.87 333.06,-800.97 322.21,-799.93 311.44,-798.77 300.81,-797.49 290.36,-796.09 280.12,-794.58 270.15,-792.97 260.47,-791.26"/>
<text text-anchor="middle" x="377.42" y="-753.67" font-family="sans-serif" font-size="16.00">InventarioBodegasContext</text>
</g>
<!-- InventarioBodegasContext&#45;&gt;EmpaquetadoContext -->
<g id="edge7" class="edge">
<title>InventarioBodegasContext&#45;&gt;EmpaquetadoContext</title>
<path fill="none" stroke="black" stroke-width="2" d="M373.73,-715.38C372.4,-698.69 371.07,-679.2 370.42,-661.53 368.96,-621.77 368.98,-611.77 370.42,-572.01 371.07,-554.22 372.38,-534.63 373.69,-517.78"/>
<text text-anchor="middle" x="445.92" y="-613.67" font-family="sans-serif" font-size="12.00"> &#160;&#160;&#160;&#160;&#160;&#160;&#160;&#160;&#160;&#160;&#160;&#160;&#160;&#160;&#160;&#160;&#160;&#160;&#160;&#160;&#160;&#160;&#160;&#160;&#160;&#160;&#160;&#160;&#160;&#160;&#160;&#160;&#160;&#160;&#160;&#160;&#160;&#160;&#160;</text>
<polygon fill="white" stroke="transparent" points="366.69,-508.78 366.69,-525.78 380.69,-525.78 380.69,-508.78 366.69,-508.78"/>
<text text-anchor="start" x="368.69" y="-514.18" font-family="sans-serif" font-size="12.00">D</text>
<polygon fill="white" stroke="transparent" points="366.73,-706.38 366.73,-723.38 380.73,-723.38 380.73,-706.38 366.73,-706.38"/>
<text text-anchor="start" x="368.73" y="-711.78" font-family="sans-serif" font-size="12.00">U</text>
</g>
<!-- InventarioCentrosDistribucionContext -->
<g id="node7" class="node">
<title>InventarioCentrosDistribucionContext</title>
<polygon fill="none" stroke="black" stroke-width="2" points="846.74,-659.75 830.94,-660.31 815.12,-660.74 799.33,-661.05 783.64,-661.23 768.12,-661.29 752.82,-661.21 737.81,-661.01 723.13,-660.68 708.84,-660.21 694.99,-659.62 681.63,-658.91 668.8,-658.06 656.54,-657.1 644.88,-656.01 633.87,-654.8 623.52,-653.48 613.85,-652.05 604.9,-650.52 596.67,-648.88 589.18,-647.14 582.44,-645.31 576.44,-643.4 571.19,-641.41 566.69,-639.34 562.93,-637.21 559.89,-635.02 557.58,-632.77 555.97,-630.48 555.05,-628.15 554.79,-625.79 555.18,-623.41 556.19,-621.01 557.81,-618.61 560,-616.2 562.74,-613.8 566.01,-611.42 569.79,-609.05 574.04,-606.72 578.74,-604.42 583.87,-602.17 589.41,-599.97 595.34,-597.82 601.63,-595.74 608.26,-593.72 615.22,-591.78 622.48,-589.91 630.05,-588.13 637.89,-586.44 646,-584.84 654.36,-583.33 662.97,-581.93 671.82,-580.63 680.9,-579.43 690.19,-578.35 699.7,-577.37 709.42,-576.5 719.34,-575.75 729.45,-575.11 739.76,-574.59 750.24,-574.18 760.91,-573.89 771.73,-573.71 782.72,-573.64 793.86,-573.69 805.13,-573.85 816.52,-574.13 828.02,-574.51 839.61,-575 851.27,-575.59 862.98,-576.29 874.72,-577.09 886.46,-577.99 898.17,-578.98 909.82,-580.07 921.39,-581.25 932.83,-582.51 944.12,-583.86 955.21,-585.29 966.07,-586.8 976.64,-588.38 986.91,-590.03 996.81,-591.74 1006.31,-593.52 1015.36,-595.35 1023.92,-597.24 1031.95,-599.18 1039.41,-601.16 1046.25,-603.19 1052.42,-605.25 1057.91,-607.34 1062.66,-609.46 1066.64,-611.61 1069.83,-613.77 1072.19,-615.95 1073.69,-618.13 1074.33,-620.31 1074.07,-622.5 1072.91,-624.67 1070.83,-626.84 1067.84,-628.98 1063.92,-631.1 1059.09,-633.19 1053.35,-635.25 1046.72,-637.27 1039.21,-639.24 1030.85,-641.16 1021.66,-643.02 1011.69,-644.82 1000.95,-646.56 989.49,-648.22 977.37,-649.8 964.62,-651.3 951.29,-652.71 937.44,-654.03 923.13,-655.25 908.42,-656.37 893.36,-657.38 878.02,-658.29 862.46,-659.08 846.74,-659.75"/>
<text text-anchor="middle" x="802.42" y="-612.97" font-family="sans-serif" font-size="16.00">InventarioCentrosDistribucionContext</text>
</g>
<!-- InventarioBodegasContext&#45;&gt;InventarioCentrosDistribucionContext -->
<g id="edge6" class="edge">
<title>InventarioBodegasContext&#45;&gt;InventarioCentrosDistribucionContext</title>
<path fill="none" stroke="black" stroke-width="2" d="M483.84,-721.74C542.49,-702.6 615.62,-678.73 677.02,-658.69"/>
<text text-anchor="middle" x="677.92" y="-682.93" font-family="sans-serif" font-size="12.00"> &#160;&#160;&#160;&#160;&#160;&#160;&#160;&#160;&#160;&#160;&#160;&#160;&#160;&#160;&#160;&#160;&#160;&#160;&#160;&#160;&#160;&#160;&#160;&#160;&#160;&#160;&#160;&#160;&#160;&#160;&#160;&#160;&#160;&#160;&#160;&#160;&#160;&#160;&#160;</text>
<polygon fill="white" stroke="transparent" points="670.02,-649.69 670.02,-666.69 684.02,-666.69 684.02,-649.69 670.02,-649.69"/>
<text text-anchor="start" x="672.02" y="-655.09" font-family="sans-serif" font-size="12.00">D</text>
<polygon fill="white" stroke="transparent" points="476.84,-712.74 476.84,-729.74 490.84,-729.74 490.84,-712.74 476.84,-712.74"/>
<text text-anchor="start" x="478.84" y="-718.14" font-family="sans-serif" font-size="12.00">U</text>
</g>
<!-- InventarioCentrosDistribucionContext&#45;&gt;EmpaquetadoContext -->
<g id="edge8" class="edge">
<title>InventarioCentrosDistribucionContext&#45;&gt;EmpaquetadoContext</title>
<path fill="none" stroke="black" stroke-width="2" d="M689.09,-578.38C626.87,-557.85 550.04,-532.51 488.23,-512.11"/>
<text text-anchor="middle" x="677.92" y="-544.41" font-family="sans-serif" font-size="12.00"> &#160;&#160;&#160;&#160;&#160;&#160;&#160;&#160;&#160;&#160;&#160;&#160;&#160;&#160;&#160;&#160;&#160;&#160;&#160;&#160;&#160;&#160;&#160;&#160;&#160;&#160;&#160;&#160;&#160;&#160;&#160;&#160;&#160;&#160;&#160;&#160;&#160;&#160;&#160;</text>
<polygon fill="white" stroke="transparent" points="481.23,-503.11 481.23,-520.11 495.23,-520.11 495.23,-503.11 481.23,-503.11"/>
<text text-anchor="start" x="483.23" y="-508.51" font-family="sans-serif" font-size="12.00">D</text>
<polygon fill="white" stroke="transparent" points="682.09,-569.38 682.09,-586.38 696.09,-586.38 696.09,-569.38 682.09,-569.38"/>
<text text-anchor="start" x="684.09" y="-574.78" font-family="sans-serif" font-size="12.00">U</text>
</g>
<!-- OrdenesContext -->
<g id="node8" class="node">
<title>OrdenesContext</title>
<polygon fill="none" stroke="black" stroke-width="2" points="475.46,-929.01 470.62,-931.3 465.53,-933.51 460.23,-935.61 454.72,-937.61 449.03,-939.5 443.18,-941.26 437.19,-942.89 431.08,-944.39 424.87,-945.75 418.59,-946.95 412.24,-948.01 405.85,-948.9 399.44,-949.64 393.03,-950.22 386.63,-950.63 380.27,-950.88 373.95,-950.96 367.69,-950.88 361.51,-950.63 355.43,-950.23 349.44,-949.67 343.58,-948.96 337.84,-948.1 332.24,-947.1 326.8,-945.95 321.51,-944.68 316.39,-943.28 311.44,-941.77 306.68,-940.15 302.11,-938.42 297.74,-936.6 293.57,-934.69 289.61,-932.71 285.87,-930.65 282.35,-928.54 279.05,-926.38 275.98,-924.17 273.14,-921.93 270.54,-919.66 268.18,-917.37 266.07,-915.07 264.21,-912.76 262.61,-910.46 261.26,-908.17 260.17,-905.9 259.35,-903.65 258.79,-901.42 258.51,-899.23 258.5,-897.07 258.77,-894.96 259.33,-892.89 260.16,-890.87 261.28,-888.9 262.69,-886.99 264.39,-885.13 266.37,-883.33 268.65,-881.59 271.21,-879.91 274.06,-878.3 277.2,-876.74 280.63,-875.26 284.33,-873.84 288.31,-872.48 292.56,-871.2 297.07,-869.98 301.84,-868.83 306.85,-867.74 312.11,-866.73 317.59,-865.79 323.28,-864.92 329.18,-864.12 335.26,-863.39 341.52,-862.74 347.93,-862.17 354.48,-861.67 361.15,-861.25 367.92,-860.91 374.77,-860.66 381.67,-860.49 388.62,-860.41 395.57,-860.42 402.52,-860.52 409.43,-860.71 416.29,-861 423.07,-861.39 429.74,-861.88 436.28,-862.47 442.67,-863.17 448.89,-863.97 454.9,-864.88 460.7,-865.89 466.25,-867.01 471.54,-868.25 476.54,-869.59 481.24,-871.03 485.62,-872.58 489.67,-874.24 493.36,-876 496.69,-877.86 499.63,-879.81 502.19,-881.86 504.36,-883.99 506.12,-886.2 507.47,-888.49 508.4,-890.85 508.92,-893.28 509.03,-895.76 508.72,-898.29 508,-900.85 506.87,-903.45 505.34,-906.07 503.43,-908.7 501.13,-911.34 498.46,-913.97 495.44,-916.58 492.07,-919.16 488.37,-921.71 484.36,-924.2 480.05,-926.64 475.46,-929.01"/>
<text text-anchor="middle" x="377.42" y="-898.46" font-family="sans-serif" font-size="16.00">OrdenesContext</text>
</g>
<!-- OrdenesContext&#45;&gt;InventarioBodegasContext -->
<g id="edge9" class="edge">
<title>OrdenesContext&#45;&gt;InventarioBodegasContext</title>
<path fill="none" stroke="black" stroke-width="2" d="M377.42,-860.34C377.42,-842.71 377.42,-822.02 377.42,-803.91"/>
<text text-anchor="middle" x="452.92" y="-825.81" font-family="sans-serif" font-size="12.00"> &#160;&#160;&#160;&#160;&#160;&#160;&#160;&#160;&#160;&#160;&#160;&#160;&#160;&#160;&#160;&#160;&#160;&#160;&#160;&#160;&#160;&#160;&#160;&#160;&#160;&#160;&#160;&#160;&#160;&#160;&#160;&#160;&#160;&#160;&#160;&#160;&#160;&#160;&#160;</text>
<polygon fill="white" stroke="transparent" points="370.42,-794.91 370.42,-811.91 384.42,-811.91 384.42,-794.91 370.42,-794.91"/>
<text text-anchor="start" x="372.42" y="-800.31" font-family="sans-serif" font-size="12.00">D</text>
<polygon fill="white" stroke="transparent" points="370.42,-851.34 370.42,-868.34 384.42,-868.34 384.42,-851.34 370.42,-851.34"/>
<text text-anchor="start" x="372.42" y="-856.74" font-family="sans-serif" font-size="12.00">U</text>
</g>
</g>
</svg>
