<svg width="2000px" height="1695px"
 viewBox="0.00 0.00 1317.83 1116.66" xmlns="http://www.w3.org/2000/svg" xmlns:xlink="http://www.w3.org/1999/xlink">
<g id="graph0" class="graph" transform="scale(1.0 1.0) rotate(0) translate(4 1112.66)">
<title>ContextMapGraph</title>
<polygon fill="white" stroke="transparent" points="-4,4 -4,-1112.66 1313.83,-1112.66 1313.83,4 -4,4"/>
<!-- EmpaquetadoPropioContext -->
<g id="node1" class="node">
<title>EmpaquetadoPropioContext</title>
<polygon fill="none" stroke="black" stroke-width="2" points="937.33,-452.45 946.93,-454.29 956.12,-456.21 964.87,-458.2 973.14,-460.26 980.9,-462.38 988.11,-464.55 994.75,-466.76 1000.78,-469 1006.18,-471.28 1010.93,-473.57 1015.01,-475.88 1018.41,-478.19 1021.1,-480.51 1023.09,-482.81 1024.37,-485.1 1024.93,-487.37 1024.78,-489.62 1023.92,-491.84 1022.37,-494.02 1020.12,-496.16 1017.2,-498.25 1013.62,-500.29 1009.41,-502.28 1004.58,-504.22 999.17,-506.09 993.19,-507.9 986.69,-509.64 979.69,-511.32 972.22,-512.92 964.33,-514.45 956.04,-515.91 947.39,-517.29 938.42,-518.59 929.18,-519.81 919.68,-520.95 909.98,-522 900.11,-522.98 890.11,-523.87 880.01,-524.67 869.84,-525.38 859.65,-526.01 849.46,-526.55 839.3,-527 829.21,-527.36 819.21,-527.62 809.32,-527.8 799.58,-527.88 790,-527.86 780.61,-527.75 771.41,-527.54 762.44,-527.24 753.7,-526.84 745.21,-526.34 736.98,-525.74 729.02,-525.04 721.33,-524.24 713.93,-523.34 706.83,-522.34 700.02,-521.24 693.52,-520.05 687.32,-518.76 681.43,-517.37 675.85,-515.88 670.58,-514.31 665.63,-512.64 661,-510.89 656.69,-509.05 652.7,-507.14 649.03,-505.14 645.69,-503.08 642.68,-500.94 640.01,-498.74 637.68,-496.49 635.69,-494.18 634.05,-491.83 632.77,-489.45 631.84,-487.03 631.29,-484.58 631.11,-482.12 631.32,-479.66 631.92,-477.19 632.91,-474.73 634.32,-472.29 636.14,-469.87 638.38,-467.48 641.05,-465.14 644.16,-462.85 647.71,-460.62 651.7,-458.46 656.14,-456.37 661.04,-454.37 666.38,-452.46 672.18,-450.64 678.42,-448.94 685.11,-447.35 692.23,-445.87 699.77,-444.53 707.74,-443.31 716.1,-442.23 724.85,-441.28 733.98,-440.48 743.44,-439.83 753.24,-439.32 763.33,-438.96 773.69,-438.75 784.3,-438.7 795.12,-438.79 806.11,-439.03 817.24,-439.42 828.47,-439.96 839.77,-440.64 851.09,-441.46 862.39,-442.41 873.63,-443.49 884.76,-444.71 895.74,-446.04 906.54,-447.48 917.09,-449.04 927.37,-450.69 937.33,-452.45"/>
<text text-anchor="middle" x="812.83" y="-482.03" font-family="sans-serif" font-size="16.00">EmpaquetadoPropioContext</text>
</g>
<!-- EntregasContext -->
<g id="node2" class="node">
<title>EntregasContext</title>
<polygon fill="none" stroke="black" stroke-width="2" points="340.11,-350.83 337.81,-348.06 335.86,-345.28 334.27,-342.49 333.04,-339.71 332.19,-336.94 331.72,-334.21 331.64,-331.51 331.94,-328.87 332.63,-326.28 333.71,-323.76 335.18,-321.31 337.03,-318.95 339.27,-316.68 341.88,-314.5 344.85,-312.43 348.19,-310.47 351.88,-308.62 355.9,-306.89 360.25,-305.28 364.91,-303.79 369.87,-302.42 375.11,-301.19 380.61,-300.07 386.35,-299.09 392.32,-298.23 398.5,-297.5 404.85,-296.89 411.37,-296.4 418.03,-296.03 424.81,-295.77 431.68,-295.63 438.63,-295.6 445.63,-295.68 452.65,-295.86 459.67,-296.14 466.68,-296.51 473.64,-296.98 480.55,-297.53 487.37,-298.16 494.08,-298.88 500.67,-299.68 507.11,-300.54 513.39,-301.48 519.49,-302.49 525.39,-303.56 531.08,-304.69 536.54,-305.88 541.76,-307.13 546.73,-308.43 551.43,-309.79 555.85,-311.21 559.99,-312.67 563.84,-314.18 567.38,-315.74 570.62,-317.35 573.54,-319.01 576.15,-320.71 578.44,-322.46 580.41,-324.25 582.05,-326.09 583.37,-327.96 584.37,-329.88 585.04,-331.83 585.4,-333.82 585.44,-335.85 585.16,-337.9 584.58,-339.99 583.68,-342.1 582.49,-344.23 581,-346.38 579.22,-348.54 577.16,-350.71 574.82,-352.89 572.21,-355.06 569.34,-357.23 566.21,-359.38 562.84,-361.51 559.22,-363.62 555.37,-365.69 551.3,-367.71 547.01,-369.69 542.52,-371.6 537.83,-373.45 532.96,-375.23 527.9,-376.92 522.68,-378.53 517.31,-380.03 511.79,-381.43 506.13,-382.71 500.35,-383.87 494.46,-384.91 488.46,-385.81 482.38,-386.56 476.23,-387.18 470.02,-387.64 463.76,-387.94 457.46,-388.09 451.15,-388.07 444.83,-387.89 438.53,-387.55 432.25,-387.04 426.01,-386.36 419.84,-385.52 413.74,-384.51 407.73,-383.35 401.83,-382.02 396.06,-380.55 390.43,-378.93 384.97,-377.17 379.68,-375.27 374.58,-373.25 369.7,-371.1 365.04,-368.85 360.63,-366.5 356.48,-364.05 352.6,-361.53 349.01,-358.93 345.72,-356.28 342.75,-353.57 340.11,-350.83"/>
<text text-anchor="middle" x="461.83" y="-335.34" font-family="sans-serif" font-size="16.00">EntregasContext</text>
</g>
<!-- EmpaquetadoPropioContext&#45;&gt;EntregasContext -->
<g id="edge1" class="edge">
<title>EmpaquetadoPropioContext&#45;&gt;EntregasContext</title>
<path fill="none" stroke="black" stroke-width="2" d="M719.32,-441.87C704.9,-434.59 690.33,-426.85 676.83,-419.02 667.98,-413.89 666.99,-410.58 657.83,-406.02 625.7,-390.01 588.76,-376.46 555.68,-365.89"/>
<text text-anchor="middle" x="752.33" y="-409.42" font-family="sans-serif" font-size="12.00"> &#160;&#160;&#160;&#160;&#160;&#160;&#160;&#160;&#160;&#160;&#160;&#160;&#160;&#160;&#160;&#160;&#160;&#160;&#160;&#160;&#160;&#160;&#160;&#160;&#160;&#160;&#160;&#160;&#160;&#160;&#160;&#160;&#160;&#160;&#160;&#160;&#160;&#160;&#160;</text>
<polygon fill="white" stroke="transparent" points="548.68,-356.89 548.68,-373.89 562.68,-373.89 562.68,-356.89 548.68,-356.89"/>
<text text-anchor="start" x="550.68" y="-362.29" font-family="sans-serif" font-size="12.00">D</text>
<polygon fill="white" stroke="transparent" points="712.32,-432.87 712.32,-449.87 726.32,-449.87 726.32,-432.87 712.32,-432.87"/>
<text text-anchor="start" x="714.32" y="-438.27" font-family="sans-serif" font-size="12.00">U</text>
</g>
<!-- RutasContext -->
<g id="node3" class="node">
<title>RutasContext</title>
<polygon fill="none" stroke="black" stroke-width="2" points="689.48,-356.52 686.58,-353.9 683.98,-351.26 681.67,-348.6 679.68,-345.92 678.02,-343.24 676.69,-340.58 675.7,-337.93 675.05,-335.31 674.75,-332.73 674.81,-330.2 675.22,-327.73 675.99,-325.31 677.11,-322.97 678.58,-320.71 680.4,-318.53 682.57,-316.44 685.07,-314.44 687.89,-312.54 691.04,-310.75 694.49,-309.06 698.23,-307.48 702.25,-306.01 706.54,-304.65 711.08,-303.4 715.86,-302.27 720.85,-301.25 726.04,-300.34 731.41,-299.55 736.94,-298.86 742.6,-298.29 748.39,-297.82 754.28,-297.45 760.24,-297.19 766.26,-297.02 772.32,-296.96 778.4,-296.99 784.47,-297.11 790.52,-297.32 796.53,-297.61 802.47,-298 808.34,-298.46 814.1,-299 819.75,-299.62 825.28,-300.31 830.65,-301.08 835.87,-301.92 840.91,-302.82 845.77,-303.8 850.43,-304.84 854.89,-305.95 859.12,-307.13 863.14,-308.37 866.92,-309.67 870.46,-311.03 873.76,-312.46 876.8,-313.95 879.6,-315.5 882.14,-317.1 884.42,-318.77 886.44,-320.5 888.2,-322.28 889.7,-324.11 890.94,-326 891.92,-327.94 892.65,-329.93 893.11,-331.96 893.33,-334.04 893.29,-336.16 893.01,-338.31 892.48,-340.5 891.7,-342.71 890.7,-344.95 889.45,-347.2 887.98,-349.46 886.28,-351.73 884.36,-354 882.22,-356.26 879.87,-358.5 877.3,-360.72 874.54,-362.91 871.57,-365.06 868.41,-367.16 865.06,-369.21 861.53,-371.19 857.82,-373.1 853.93,-374.93 849.88,-376.67 845.67,-378.31 841.31,-379.84 836.8,-381.26 832.15,-382.57 827.37,-383.74 822.46,-384.78 817.45,-385.68 812.33,-386.43 807.12,-387.03 801.82,-387.48 796.46,-387.77 791.04,-387.9 785.56,-387.87 780.06,-387.67 774.54,-387.3 769,-386.77 763.48,-386.08 757.98,-385.22 752.53,-384.21 747.12,-383.04 741.79,-381.71 736.55,-380.25 731.41,-378.64 726.39,-376.89 721.52,-375.02 716.8,-373.03 712.25,-370.93 707.89,-368.73 703.73,-366.43 699.8,-364.05 696.1,-361.6 692.66,-359.08 689.48,-356.52"/>
<text text-anchor="middle" x="788.83" y="-335.34" font-family="sans-serif" font-size="16.00">RutasContext</text>
</g>
<!-- EmpaquetadoPropioContext&#45;&gt;RutasContext -->
<g id="edge2" class="edge">
<title>EmpaquetadoPropioContext&#45;&gt;RutasContext</title>
<path fill="none" stroke="black" stroke-width="2" d="M831.88,-440.02C834.37,-428.85 835.08,-416.95 831.83,-406.02 829.69,-398.82 826.48,-391.67 822.77,-384.89"/>
<text text-anchor="middle" x="909.33" y="-409.42" font-family="sans-serif" font-size="12.00"> &#160;&#160;&#160;&#160;&#160;&#160;&#160;&#160;&#160;&#160;&#160;&#160;&#160;&#160;&#160;&#160;&#160;&#160;&#160;&#160;&#160;&#160;&#160;&#160;&#160;&#160;&#160;&#160;&#160;&#160;&#160;&#160;&#160;&#160;&#160;&#160;&#160;&#160;&#160;</text>
<polygon fill="white" stroke="transparent" points="815.77,-375.89 815.77,-392.89 829.77,-392.89 829.77,-375.89 815.77,-375.89"/>
<text text-anchor="start" x="817.77" y="-381.29" font-family="sans-serif" font-size="12.00">D</text>
<polygon fill="white" stroke="transparent" points="824.88,-431.02 824.88,-448.02 838.88,-448.02 838.88,-431.02 824.88,-431.02"/>
<text text-anchor="start" x="826.88" y="-436.42" font-family="sans-serif" font-size="12.00">U</text>
</g>
<!-- FlotaTercerosContext -->
<g id="node4" class="node">
<title>FlotaTercerosContext</title>
<polygon fill="none" stroke="black" stroke-width="2" points="831.64,-18.94 838.24,-21.07 844.48,-23.26 850.35,-25.51 855.81,-27.8 860.84,-30.14 865.43,-32.51 869.54,-34.91 873.17,-37.32 876.3,-39.74 878.91,-42.15 880.99,-44.56 882.53,-46.96 883.53,-49.33 883.98,-51.67 883.89,-53.97 883.24,-56.23 882.06,-58.44 880.34,-60.6 878.09,-62.71 875.32,-64.75 872.05,-66.72 868.29,-68.63 864.07,-70.46 859.39,-72.21 854.28,-73.89 848.77,-75.48 842.88,-77 836.63,-78.43 830.06,-79.77 823.18,-81.03 816.04,-82.2 808.65,-83.29 801.05,-84.29 793.27,-85.2 785.33,-86.02 777.28,-86.75 769.13,-87.4 760.92,-87.96 752.67,-88.43 744.41,-88.81 736.18,-89.1 727.99,-89.31 719.87,-89.43 711.84,-89.46 703.93,-89.4 696.15,-89.26 688.52,-89.03 681.07,-88.71 673.81,-88.3 666.75,-87.8 659.91,-87.21 653.29,-86.53 646.92,-85.77 640.8,-84.91 634.93,-83.97 629.33,-82.93 623.99,-81.81 618.94,-80.6 614.16,-79.3 609.66,-77.91 605.45,-76.43 601.52,-74.87 597.88,-73.23 594.53,-71.51 591.47,-69.71 588.69,-67.83 586.21,-65.88 584.01,-63.85 582.11,-61.77 580.49,-59.62 579.16,-57.42 578.13,-55.16 577.38,-52.86 576.93,-50.52 576.77,-48.15 576.91,-45.75 577.34,-43.33 578.07,-40.9 579.1,-38.47 580.43,-36.04 582.07,-33.62 584.02,-31.22 586.27,-28.86 588.84,-26.53 591.72,-24.24 594.91,-22.02 598.42,-19.85 602.25,-17.76 606.38,-15.76 610.84,-13.84 615.6,-12.02 620.67,-10.3 626.04,-8.7 631.71,-7.21 637.67,-5.85 643.92,-4.63 650.44,-3.54 657.22,-2.59 664.25,-1.79 671.51,-1.13 678.99,-0.63 686.67,-0.29 694.54,-0.1 702.57,-0.07 710.74,-0.2 719.02,-0.48 727.4,-0.92 735.84,-1.51 744.32,-2.25 752.82,-3.14 761.29,-4.17 769.71,-5.34 778.06,-6.64 786.29,-8.07 794.39,-9.62 802.31,-11.29 810.02,-13.06 817.51,-14.93 824.72,-16.9 831.64,-18.94"/>
<text text-anchor="middle" x="718.83" y="-44.13" font-family="sans-serif" font-size="16.00">FlotaTercerosContext</text>
</g>
<!-- RutasContext&#45;&gt;FlotaTercerosContext -->
<g id="edge3" class="edge">
<title>RutasContext&#45;&gt;FlotaTercerosContext</title>
<path fill="none" stroke="black" stroke-width="2" d="M746.6,-297.61C732.74,-281.53 719.05,-261.95 711.83,-241.26 694.38,-191.26 701.22,-129.45 708.96,-89.62"/>
<text text-anchor="middle" x="787.33" y="-189.96" font-family="sans-serif" font-size="12.00"> &#160;&#160;&#160;&#160;&#160;&#160;&#160;&#160;&#160;&#160;&#160;&#160;&#160;&#160;&#160;&#160;&#160;&#160;&#160;&#160;&#160;&#160;&#160;&#160;&#160;&#160;&#160;&#160;&#160;&#160;&#160;&#160;&#160;&#160;&#160;&#160;&#160;&#160;&#160;</text>
<polygon fill="white" stroke="transparent" points="685.96,-79.62 685.96,-98.62 701.96,-98.62 701.96,-79.62 685.96,-79.62"/>
<polyline fill="none" stroke="black" points="701.96,-79.62 701.96,-98.62 "/>
<text text-anchor="start" x="688.96" y="-86.02" font-family="sans-serif" font-size="12.00">D</text>
<polygon fill="white" stroke="transparent" points="701.96,-79.62 701.96,-98.62 731.96,-98.62 731.96,-79.62 701.96,-79.62"/>
<polygon fill="none" stroke="black" points="701.96,-79.62 701.96,-98.62 731.96,-98.62 731.96,-79.62 701.96,-79.62"/>
<text text-anchor="start" x="704.96" y="-86.02" font-family="sans-serif" font-size="12.00">ACL</text>
<polygon fill="white" stroke="transparent" points="739.6,-288.61 739.6,-305.61 753.6,-305.61 753.6,-288.61 739.6,-288.61"/>
<text text-anchor="start" x="741.6" y="-294.01" font-family="sans-serif" font-size="12.00">U</text>
</g>
<!-- FlotaPropiaContext -->
<g id="node5" class="node">
<title>FlotaPropiaContext</title>
<polygon fill="none" stroke="black" stroke-width="2" points="875.01,-198.71 873.72,-195.86 872.81,-193 872.3,-190.17 872.18,-187.36 872.47,-184.58 873.15,-181.85 874.24,-179.18 875.73,-176.57 877.62,-174.04 879.9,-171.6 882.57,-169.25 885.63,-167 889.06,-164.86 892.86,-162.84 897.01,-160.93 901.51,-159.15 906.34,-157.5 911.48,-155.98 916.93,-154.6 922.67,-153.35 928.67,-152.24 934.92,-151.27 941.4,-150.44 948.1,-149.74 954.98,-149.18 962.03,-148.76 969.23,-148.46 976.55,-148.3 983.97,-148.25 991.48,-148.33 999.03,-148.53 1006.62,-148.84 1014.21,-149.25 1021.78,-149.77 1029.32,-150.39 1036.8,-151.1 1044.19,-151.9 1051.47,-152.78 1058.62,-153.74 1065.63,-154.78 1072.46,-155.88 1079.11,-157.06 1085.54,-158.29 1091.75,-159.58 1097.72,-160.93 1103.42,-162.33 1108.86,-163.77 1114,-165.26 1118.84,-166.8 1123.37,-168.37 1127.57,-169.98 1131.44,-171.63 1134.97,-173.32 1138.15,-175.04 1140.97,-176.79 1143.44,-178.57 1145.53,-180.38 1147.26,-182.22 1148.62,-184.09 1149.61,-185.99 1150.23,-187.91 1150.48,-189.85 1150.36,-191.82 1149.87,-193.81 1149.03,-195.81 1147.83,-197.83 1146.27,-199.87 1144.38,-201.91 1142.14,-203.96 1139.58,-206.02 1136.69,-208.07 1133.49,-210.12 1129.99,-212.17 1126.19,-214.19 1122.11,-216.2 1117.76,-218.17 1113.14,-220.12 1108.28,-222.02 1103.18,-223.89 1097.85,-225.69 1092.31,-227.44 1086.57,-229.12 1080.65,-230.72 1074.56,-232.24 1068.31,-233.67 1061.91,-235 1055.39,-236.23 1048.76,-237.35 1042.03,-238.34 1035.22,-239.21 1028.34,-239.95 1021.42,-240.55 1014.46,-241 1007.48,-241.31 1000.51,-241.46 993.55,-241.46 986.62,-241.3 979.74,-240.98 972.94,-240.49 966.21,-239.84 959.59,-239.03 953.09,-238.06 946.73,-236.92 940.52,-235.63 934.48,-234.18 928.63,-232.59 922.99,-230.85 917.56,-228.97 912.37,-226.96 907.44,-224.83 902.77,-222.58 898.38,-220.22 894.29,-217.76 890.51,-215.22 887.06,-212.6 883.94,-209.91 881.16,-207.16 878.74,-204.37 876.69,-201.55 875.01,-198.71"/>
<text text-anchor="middle" x="1012.83" y="-189.26" font-family="sans-serif" font-size="16.00">FlotaPropiaContext</text>
</g>
<!-- RutasContext&#45;&gt;FlotaPropiaContext -->
<g id="edge4" class="edge">
<title>RutasContext&#45;&gt;FlotaPropiaContext</title>
<path fill="none" stroke="black" stroke-width="2" d="M843.34,-303.08C874.29,-283.17 913.28,-258.09 946.05,-237.01"/>
<text text-anchor="middle" x="982.33" y="-262.66" font-family="sans-serif" font-size="12.00"> &#160;&#160;&#160;&#160;&#160;&#160;&#160;&#160;&#160;&#160;&#160;&#160;&#160;&#160;&#160;&#160;&#160;&#160;&#160;&#160;&#160;&#160;&#160;&#160;&#160;&#160;&#160;&#160;&#160;&#160;&#160;&#160;&#160;&#160;&#160;&#160;&#160;&#160;&#160;</text>
<polygon fill="white" stroke="transparent" points="939.05,-228.01 939.05,-245.01 953.05,-245.01 953.05,-228.01 939.05,-228.01"/>
<text text-anchor="start" x="941.05" y="-233.41" font-family="sans-serif" font-size="12.00">D</text>
<polygon fill="white" stroke="transparent" points="836.34,-294.08 836.34,-311.08 850.34,-311.08 850.34,-294.08 836.34,-294.08"/>
<text text-anchor="start" x="838.34" y="-299.48" font-family="sans-serif" font-size="12.00">U</text>
</g>
<!-- FlotaPropiaContext&#45;&gt;FlotaTercerosContext -->
<g id="edge5" class="edge">
<title>FlotaPropiaContext&#45;&gt;FlotaTercerosContext</title>
<path fill="none" stroke="black" stroke-width="2" d="M930.15,-151.81C887.18,-130.89 835.08,-105.52 793.36,-85.21"/>
<text text-anchor="middle" x="915.83" y="-117.26" font-family="sans-serif" font-size="12.00">Shared Kernel</text>
</g>
<!-- EmpaquetadoTercerosContext -->
<g id="node6" class="node">
<title>EmpaquetadoTercerosContext</title>
<polygon fill="none" stroke="black" stroke-width="2" points="180.17,-498.88 176.05,-496.17 172.49,-493.43 169.5,-490.69 167.1,-487.95 165.3,-485.22 164.12,-482.52 163.55,-479.85 163.61,-477.22 164.3,-474.65 165.62,-472.13 167.58,-469.69 170.16,-467.33 173.37,-465.05 177.2,-462.86 181.62,-460.78 186.64,-458.79 192.24,-456.92 198.4,-455.15 205.09,-453.5 212.3,-451.97 220.01,-450.56 228.18,-449.27 236.79,-448.1 245.82,-447.05 255.22,-446.13 264.97,-445.33 275.03,-444.65 285.37,-444.08 295.96,-443.64 306.75,-443.3 317.71,-443.08 328.8,-442.97 340,-442.96 351.25,-443.05 362.52,-443.24 373.78,-443.53 384.98,-443.9 396.1,-444.37 407.1,-444.92 417.94,-445.55 428.6,-446.25 439.03,-447.03 449.22,-447.89 459.13,-448.81 468.73,-449.8 478.01,-450.85 486.93,-451.97 495.47,-453.14 503.61,-454.37 511.34,-455.66 518.64,-457.01 525.48,-458.41 531.87,-459.86 537.78,-461.37 543.21,-462.92 548.15,-464.53 552.59,-466.19 556.52,-467.89 559.95,-469.64 562.87,-471.44 565.28,-473.28 567.18,-475.17 568.57,-477.1 569.46,-479.06 569.84,-481.07 569.73,-483.11 569.13,-485.18 568.04,-487.28 566.47,-489.41 564.44,-491.56 561.94,-493.72 558.99,-495.9 555.6,-498.09 551.78,-500.27 547.54,-502.45 542.88,-504.62 537.82,-506.78 532.38,-508.9 526.56,-511 520.37,-513.06 513.84,-515.07 506.97,-517.02 499.77,-518.91 492.26,-520.73 484.45,-522.47 476.37,-524.12 468.02,-525.67 459.41,-527.13 450.58,-528.47 441.53,-529.69 432.27,-530.78 422.84,-531.75 413.25,-532.57 403.51,-533.25 393.66,-533.79 383.7,-534.16 373.66,-534.38 363.57,-534.45 353.45,-534.34 343.31,-534.08 333.2,-533.65 323.13,-533.05 313.12,-532.29 303.21,-531.37 293.43,-530.29 283.79,-529.05 274.33,-527.66 265.08,-526.12 256.06,-524.44 247.3,-522.62 238.84,-520.68 230.69,-518.62 222.89,-516.44 215.46,-514.16 208.44,-511.79 201.84,-509.34 195.69,-506.81 190.01,-504.21 184.83,-501.57 180.17,-498.88"/>
<text text-anchor="middle" x="372.83" y="-482.03" font-family="sans-serif" font-size="16.00">EmpaquetadoTercerosContext</text>
</g>
<!-- EmpaquetadoTercerosContext&#45;&gt;EntregasContext -->
<g id="edge7" class="edge">
<title>EmpaquetadoTercerosContext&#45;&gt;EntregasContext</title>
<path fill="none" stroke="black" stroke-width="2" d="M334.87,-442.84C328.36,-430.74 325.7,-417.67 332.83,-406.02 341.69,-391.54 354.85,-380.12 369.42,-371.15"/>
<text text-anchor="middle" x="408.33" y="-409.42" font-family="sans-serif" font-size="12.00"> &#160;&#160;&#160;&#160;&#160;&#160;&#160;&#160;&#160;&#160;&#160;&#160;&#160;&#160;&#160;&#160;&#160;&#160;&#160;&#160;&#160;&#160;&#160;&#160;&#160;&#160;&#160;&#160;&#160;&#160;&#160;&#160;&#160;&#160;&#160;&#160;&#160;&#160;&#160;</text>
<polygon fill="white" stroke="transparent" points="362.42,-362.15 362.42,-379.15 376.42,-379.15 376.42,-362.15 362.42,-362.15"/>
<text text-anchor="start" x="364.42" y="-367.55" font-family="sans-serif" font-size="12.00">D</text>
<polygon fill="white" stroke="transparent" points="327.87,-433.84 327.87,-450.84 341.87,-450.84 341.87,-433.84 327.87,-433.84"/>
<text text-anchor="start" x="329.87" y="-439.24" font-family="sans-serif" font-size="12.00">U</text>
</g>
<!-- EmpaquetadoTercerosContext&#45;&gt;RutasContext -->
<g id="edge6" class="edge">
<title>EmpaquetadoTercerosContext&#45;&gt;RutasContext</title>
<path fill="none" stroke="black" stroke-width="2" d="M438.41,-446.9C453.45,-437.94 469.28,-428.29 483.83,-419.02 492.46,-413.52 493.37,-409.92 502.83,-406.02 543.77,-389.15 557.57,-397.49 600.83,-388.02 633.24,-380.93 668.54,-372.2 699.71,-364.15"/>
<text text-anchor="middle" x="578.33" y="-409.42" font-family="sans-serif" font-size="12.00"> &#160;&#160;&#160;&#160;&#160;&#160;&#160;&#160;&#160;&#160;&#160;&#160;&#160;&#160;&#160;&#160;&#160;&#160;&#160;&#160;&#160;&#160;&#160;&#160;&#160;&#160;&#160;&#160;&#160;&#160;&#160;&#160;&#160;&#160;&#160;&#160;&#160;&#160;&#160;</text>
<polygon fill="white" stroke="transparent" points="692.71,-355.15 692.71,-372.15 706.71,-372.15 706.71,-355.15 692.71,-355.15"/>
<text text-anchor="start" x="694.71" y="-360.55" font-family="sans-serif" font-size="12.00">D</text>
<polygon fill="white" stroke="transparent" points="414.41,-436.9 414.41,-455.9 430.41,-455.9 430.41,-436.9 414.41,-436.9"/>
<polyline fill="none" stroke="black" points="430.41,-436.9 430.41,-455.9 "/>
<text text-anchor="start" x="417.41" y="-443.3" font-family="sans-serif" font-size="12.00">U</text>
<polygon fill="white" stroke="transparent" points="430.41,-436.9 430.41,-455.9 463.41,-455.9 463.41,-436.9 430.41,-436.9"/>
<polygon fill="none" stroke="black" points="430.41,-436.9 430.41,-455.9 463.41,-455.9 463.41,-436.9 430.41,-436.9"/>
<text text-anchor="start" x="433.41" y="-443.3" font-family="sans-serif" font-size="12.00">OHS</text>
</g>
<!-- IntegracionBodegasTercerosContext -->
<g id="node7" class="node">
<title>IntegracionBodegasTercerosContext</title>
<polygon fill="none" stroke="black" stroke-width="2" points="445.88,-892.68 455.98,-890.5 466.52,-888.41 477.44,-886.43 488.7,-884.55 500.27,-882.8 512.09,-881.17 524.13,-879.68 536.35,-878.33 548.71,-877.12 561.15,-876.06 573.66,-875.16 586.18,-874.42 598.69,-873.84 611.14,-873.42 623.5,-873.16 635.74,-873.07 647.82,-873.15 659.73,-873.38 671.42,-873.78 682.88,-874.34 694.09,-875.05 705.01,-875.91 715.63,-876.92 725.93,-878.07 735.89,-879.35 745.5,-880.76 754.74,-882.29 763.6,-883.94 772.07,-885.69 780.14,-887.54 787.79,-889.48 795.02,-891.5 801.83,-893.59 808.19,-895.75 814.12,-897.96 819.6,-900.21 824.62,-902.51 829.19,-904.84 833.29,-907.18 836.92,-909.54 840.08,-911.9 842.76,-914.27 844.96,-916.62 846.67,-918.95 847.89,-921.27 848.61,-923.55 848.83,-925.8 848.54,-928.01 847.74,-930.18 846.42,-932.3 844.59,-934.36 842.23,-936.37 839.35,-938.33 835.95,-940.22 832.01,-942.04 827.54,-943.8 822.55,-945.49 817.02,-947.11 810.97,-948.67 804.4,-950.15 797.31,-951.56 789.71,-952.89 781.61,-954.15 773.02,-955.34 763.95,-956.46 754.42,-957.49 744.44,-958.46 734.04,-959.34 723.22,-960.16 712.03,-960.89 700.48,-961.55 688.6,-962.13 676.42,-962.62 663.97,-963.04 651.28,-963.38 638.4,-963.64 625.36,-963.81 612.2,-963.89 598.96,-963.89 585.69,-963.8 572.42,-963.62 559.21,-963.34 546.09,-962.98 533.12,-962.51 520.34,-961.96 507.79,-961.3 495.53,-960.54 483.6,-959.68 472.05,-958.72 460.91,-957.66 450.24,-956.5 440.07,-955.23 430.45,-953.86 421.41,-952.39 412.98,-950.82 405.21,-949.15 398.12,-947.38 391.74,-945.52 386.1,-943.57 381.21,-941.54 377.1,-939.42 373.78,-937.22 371.26,-934.95 369.55,-932.61 368.65,-930.22 368.57,-927.77 369.31,-925.27 370.85,-922.74 373.2,-920.18 376.32,-917.59 380.22,-915 384.87,-912.4 390.25,-909.81 396.33,-907.23 403.09,-904.68 410.49,-902.17 418.5,-899.71 427.1,-897.3 436.23,-894.95 445.88,-892.68"/>
<text text-anchor="middle" x="622.83" y="-918.21" font-family="sans-serif" font-size="16.00">IntegracionBodegasTercerosContext</text>
</g>
<!-- InventarioBodegasTercerosContext -->
<g id="node8" class="node">
<title>InventarioBodegasTercerosContext</title>
<polygon fill="none" stroke="black" stroke-width="2" points="505.13,-819.97 490.38,-820.48 475.61,-820.87 460.9,-821.13 446.28,-821.26 431.84,-821.27 417.61,-821.15 403.66,-820.9 390.03,-820.51 376.78,-820 363.95,-819.37 351.58,-818.6 339.72,-817.71 328.4,-816.7 317.66,-815.56 307.51,-814.31 298,-812.95 289.15,-811.48 280.96,-809.9 273.45,-808.22 266.64,-806.45 260.53,-804.58 255.13,-802.63 250.43,-800.61 246.43,-798.51 243.12,-796.35 240.5,-794.13 238.55,-791.85 237.26,-789.54 236.62,-787.19 236.6,-784.81 237.18,-782.41 238.34,-779.99 240.06,-777.57 242.32,-775.15 245.09,-772.74 248.36,-770.34 252.08,-767.97 256.25,-765.63 260.84,-763.33 265.82,-761.08 271.18,-758.87 276.89,-756.72 282.93,-754.64 289.28,-752.63 295.94,-750.69 302.87,-748.83 310.07,-747.06 317.52,-745.38 325.21,-743.79 333.13,-742.3 341.27,-740.91 349.63,-739.63 358.18,-738.45 366.93,-737.38 375.87,-736.42 384.99,-735.58 394.29,-734.85 403.76,-734.24 413.39,-733.75 423.18,-733.37 433.13,-733.1 443.22,-732.96 453.45,-732.93 463.81,-733.01 474.28,-733.21 484.85,-733.52 495.52,-733.94 506.26,-734.47 517.05,-735.11 527.89,-735.85 538.73,-736.69 549.57,-737.63 560.38,-738.67 571.12,-739.81 581.78,-741.03 592.31,-742.34 602.69,-743.74 612.88,-745.21 622.84,-746.76 632.54,-748.39 641.93,-750.09 650.99,-751.85 659.67,-753.67 667.92,-755.55 675.72,-757.48 683.01,-759.46 689.76,-761.48 695.94,-763.54 701.5,-765.64 706.41,-767.77 710.63,-769.93 714.14,-772.1 716.91,-774.29 718.91,-776.49 720.11,-778.7 720.5,-780.9 720.06,-783.11 718.78,-785.3 716.65,-787.47 713.67,-789.62 709.83,-791.75 705.14,-793.85 699.61,-795.9 693.26,-797.92 686.09,-799.88 678.14,-801.79 669.42,-803.64 659.97,-805.43 649.82,-807.14 639.01,-808.78 627.58,-810.34 615.58,-811.81 603.05,-813.19 590.04,-814.48 576.62,-815.67 562.82,-816.75 548.72,-817.73 534.36,-818.59 519.81,-819.34 505.13,-819.97"/>
<text text-anchor="middle" x="467.83" y="-772.68" font-family="sans-serif" font-size="16.00">InventarioBodegasTercerosContext</text>
</g>
<!-- IntegracionBodegasTercerosContext&#45;&gt;InventarioBodegasTercerosContext -->
<g id="edge8" class="edge">
<title>IntegracionBodegasTercerosContext&#45;&gt;InventarioBodegasTercerosContext</title>
<path fill="none" stroke="black" stroke-width="2" d="M572.93,-874.8C553.82,-857.1 532.13,-837.02 513.43,-819.71"/>
<text text-anchor="middle" x="626.33" y="-845.69" font-family="sans-serif" font-size="12.00"> &#160;&#160;&#160;&#160;&#160;&#160;&#160;&#160;&#160;&#160;&#160;&#160;&#160;&#160;&#160;&#160;&#160;&#160;&#160;&#160;&#160;&#160;&#160;&#160;&#160;&#160;&#160;&#160;&#160;&#160;&#160;&#160;&#160;&#160;&#160;&#160;&#160;&#160;&#160;</text>
<polygon fill="white" stroke="transparent" points="506.43,-810.71 506.43,-827.71 520.43,-827.71 520.43,-810.71 506.43,-810.71"/>
<text text-anchor="start" x="508.43" y="-816.11" font-family="sans-serif" font-size="12.00">D</text>
<polygon fill="white" stroke="transparent" points="565.93,-865.8 565.93,-882.8 579.93,-882.8 579.93,-865.8 565.93,-865.8"/>
<text text-anchor="start" x="567.93" y="-871.2" font-family="sans-serif" font-size="12.00">U</text>
</g>
<!-- InventarioBodegasTercerosContext&#45;&gt;EmpaquetadoPropioContext -->
<g id="edge11" class="edge">
<title>InventarioBodegasTercerosContext&#45;&gt;EmpaquetadoPropioContext</title>
<path fill="none" stroke="black" stroke-width="2" d="M638.74,-749.39C708.14,-737.17 774.73,-722.7 785.83,-710.67 809.64,-684.84 813.34,-585.18 813.42,-527.93"/>
<text text-anchor="middle" x="887.33" y="-628.55" font-family="sans-serif" font-size="12.00"> &#160;&#160;&#160;&#160;&#160;&#160;&#160;&#160;&#160;&#160;&#160;&#160;&#160;&#160;&#160;&#160;&#160;&#160;&#160;&#160;&#160;&#160;&#160;&#160;&#160;&#160;&#160;&#160;&#160;&#160;&#160;&#160;&#160;&#160;&#160;&#160;&#160;&#160;&#160;</text>
<polygon fill="white" stroke="transparent" points="806.42,-518.93 806.42,-535.93 820.42,-535.93 820.42,-518.93 806.42,-518.93"/>
<text text-anchor="start" x="808.42" y="-524.33" font-family="sans-serif" font-size="12.00">D</text>
<polygon fill="white" stroke="transparent" points="614.74,-739.39 614.74,-758.39 630.74,-758.39 630.74,-739.39 614.74,-739.39"/>
<polyline fill="none" stroke="black" points="630.74,-739.39 630.74,-758.39 "/>
<text text-anchor="start" x="617.74" y="-745.79" font-family="sans-serif" font-size="12.00">U</text>
<polygon fill="white" stroke="transparent" points="630.74,-739.39 630.74,-758.39 663.74,-758.39 663.74,-739.39 630.74,-739.39"/>
<polygon fill="none" stroke="black" points="630.74,-739.39 630.74,-758.39 663.74,-758.39 663.74,-739.39 630.74,-739.39"/>
<text text-anchor="start" x="633.74" y="-745.79" font-family="sans-serif" font-size="12.00">OHS</text>
</g>
<!-- InventarioBodegasTercerosContext&#45;&gt;EmpaquetadoTercerosContext -->
<g id="edge10" class="edge">
<title>InventarioBodegasTercerosContext&#45;&gt;EmpaquetadoTercerosContext</title>
<path fill="none" stroke="black" stroke-width="2" d="M273.31,-757.99C167.8,-744.04 52.4,-719.94 19.83,-679.67 -7.01,-646.48 -6.05,-617.57 19.83,-583.64 43.92,-552.06 128.64,-528.24 209.05,-512.13"/>
<text text-anchor="middle" x="95.33" y="-628.55" font-family="sans-serif" font-size="12.00"> &#160;&#160;&#160;&#160;&#160;&#160;&#160;&#160;&#160;&#160;&#160;&#160;&#160;&#160;&#160;&#160;&#160;&#160;&#160;&#160;&#160;&#160;&#160;&#160;&#160;&#160;&#160;&#160;&#160;&#160;&#160;&#160;&#160;&#160;&#160;&#160;&#160;&#160;&#160;</text>
<polygon fill="white" stroke="transparent" points="186.05,-502.13 186.05,-521.13 202.05,-521.13 202.05,-502.13 186.05,-502.13"/>
<polyline fill="none" stroke="black" points="202.05,-502.13 202.05,-521.13 "/>
<text text-anchor="start" x="189.05" y="-508.53" font-family="sans-serif" font-size="12.00">D</text>
<polygon fill="white" stroke="transparent" points="202.05,-502.13 202.05,-521.13 232.05,-521.13 232.05,-502.13 202.05,-502.13"/>
<polygon fill="none" stroke="black" points="202.05,-502.13 202.05,-521.13 232.05,-521.13 232.05,-502.13 202.05,-502.13"/>
<text text-anchor="start" x="205.05" y="-508.53" font-family="sans-serif" font-size="12.00">ACL</text>
<polygon fill="white" stroke="transparent" points="266.31,-748.99 266.31,-765.99 280.31,-765.99 280.31,-748.99 266.31,-748.99"/>
<text text-anchor="start" x="268.31" y="-754.39" font-family="sans-serif" font-size="12.00">U</text>
</g>
<!-- InventarioDisponibilidadProductoContext -->
<g id="node9" class="node">
<title>InventarioDisponibilidadProductoContext</title>
<polygon fill="none" stroke="black" stroke-width="2" points="674.36,-603.19 685.8,-605.35 696.61,-607.58 706.74,-609.86 716.16,-612.19 724.81,-614.56 732.67,-616.96 739.69,-619.38 745.85,-621.81 751.12,-624.25 755.48,-626.68 758.9,-629.11 761.37,-631.51 762.89,-633.89 763.45,-636.24 763.03,-638.54 761.66,-640.81 759.33,-643.02 756.06,-645.17 751.86,-647.27 746.75,-649.3 740.76,-651.26 733.91,-653.14 726.25,-654.96 717.79,-656.69 708.59,-658.34 698.67,-659.91 688.09,-661.4 676.9,-662.8 665.13,-664.11 652.84,-665.34 640.08,-666.48 626.9,-667.53 613.36,-668.49 599.5,-669.36 585.39,-670.14 571.07,-670.84 556.59,-671.44 542.01,-671.96 527.38,-672.39 512.74,-672.73 498.15,-672.98 483.65,-673.15 469.28,-673.22 455.08,-673.21 441.09,-673.12 427.35,-672.93 413.9,-672.66 400.76,-672.3 387.96,-671.85 375.53,-671.32 363.49,-670.7 351.87,-669.98 340.68,-669.18 329.94,-668.3 319.67,-667.32 309.87,-666.25 300.56,-665.1 291.75,-663.86 283.44,-662.53 275.63,-661.12 268.34,-659.62 261.56,-658.04 255.3,-656.38 249.56,-654.63 244.33,-652.81 239.63,-650.92 235.44,-648.95 231.77,-646.91 228.62,-644.82 225.99,-642.66 223.88,-640.44 222.29,-638.18 221.21,-635.87 220.66,-633.52 220.63,-631.15 221.12,-628.74 222.14,-626.32 223.69,-623.89 225.77,-621.46 228.38,-619.03 231.54,-616.62 235.23,-614.23 239.47,-611.87 244.25,-609.55 249.59,-607.28 255.47,-605.06 261.9,-602.92 268.88,-600.84 276.41,-598.85 284.49,-596.95 293.1,-595.15 302.25,-593.46 311.92,-591.88 322.1,-590.42 332.79,-589.09 343.96,-587.9 355.6,-586.84 367.68,-585.92 380.2,-585.15 393.11,-584.54 406.39,-584.08 420.01,-583.77 433.94,-583.62 448.14,-583.63 462.57,-583.8 477.19,-584.12 491.95,-584.61 506.82,-585.24 521.74,-586.03 536.66,-586.96 551.53,-588.04 566.3,-589.25 580.92,-590.6 595.33,-592.07 609.48,-593.67 623.3,-595.38 636.76,-597.19 649.79,-599.1 662.34,-601.11 674.36,-603.19"/>
<text text-anchor="middle" x="471.83" y="-627.85" font-family="sans-serif" font-size="16.00">InventarioDisponibilidadProductoContext</text>
</g>
<!-- InventarioBodegasTercerosContext&#45;&gt;InventarioDisponibilidadProductoContext -->
<g id="edge9" class="edge">
<title>InventarioBodegasTercerosContext&#45;&gt;InventarioDisponibilidadProductoContext</title>
<path fill="none" stroke="black" stroke-width="2" d="M461.31,-732.68C460.3,-721.3 459.88,-709.02 460.83,-697.67 461.49,-689.8 462.6,-681.44 463.86,-673.44"/>
<text text-anchor="middle" x="536.33" y="-701.07" font-family="sans-serif" font-size="12.00"> &#160;&#160;&#160;&#160;&#160;&#160;&#160;&#160;&#160;&#160;&#160;&#160;&#160;&#160;&#160;&#160;&#160;&#160;&#160;&#160;&#160;&#160;&#160;&#160;&#160;&#160;&#160;&#160;&#160;&#160;&#160;&#160;&#160;&#160;&#160;&#160;&#160;&#160;&#160;</text>
<polygon fill="white" stroke="transparent" points="440.86,-663.44 440.86,-682.44 456.86,-682.44 456.86,-663.44 440.86,-663.44"/>
<polyline fill="none" stroke="black" points="456.86,-663.44 456.86,-682.44 "/>
<text text-anchor="start" x="443.86" y="-669.84" font-family="sans-serif" font-size="12.00">D</text>
<polygon fill="white" stroke="transparent" points="456.86,-663.44 456.86,-682.44 486.86,-682.44 486.86,-663.44 456.86,-663.44"/>
<polygon fill="none" stroke="black" points="456.86,-663.44 456.86,-682.44 486.86,-682.44 486.86,-663.44 456.86,-663.44"/>
<text text-anchor="start" x="459.86" y="-669.84" font-family="sans-serif" font-size="12.00">ACL</text>
<polygon fill="white" stroke="transparent" points="454.31,-723.68 454.31,-740.68 468.31,-740.68 468.31,-723.68 454.31,-723.68"/>
<text text-anchor="start" x="456.31" y="-729.08" font-family="sans-serif" font-size="12.00">U</text>
</g>
<!-- InventarioDisponibilidadProductoContext&#45;&gt;EmpaquetadoPropioContext -->
<g id="edge13" class="edge">
<title>InventarioDisponibilidadProductoContext&#45;&gt;EmpaquetadoPropioContext</title>
<path fill="none" stroke="black" stroke-width="2" d="M556.6,-588.26C581.58,-576.26 609.12,-563.52 634.83,-552.64 658.95,-542.43 685.26,-532.22 710.07,-522.98"/>
<text text-anchor="middle" x="710.33" y="-556.04" font-family="sans-serif" font-size="12.00"> &#160;&#160;&#160;&#160;&#160;&#160;&#160;&#160;&#160;&#160;&#160;&#160;&#160;&#160;&#160;&#160;&#160;&#160;&#160;&#160;&#160;&#160;&#160;&#160;&#160;&#160;&#160;&#160;&#160;&#160;&#160;&#160;&#160;&#160;&#160;&#160;&#160;&#160;&#160;</text>
<polygon fill="white" stroke="transparent" points="703.07,-513.98 703.07,-530.98 717.07,-530.98 717.07,-513.98 703.07,-513.98"/>
<text text-anchor="start" x="705.07" y="-519.38" font-family="sans-serif" font-size="12.00">D</text>
<polygon fill="white" stroke="transparent" points="549.6,-579.26 549.6,-596.26 563.6,-596.26 563.6,-579.26 549.6,-579.26"/>
<text text-anchor="start" x="551.6" y="-584.66" font-family="sans-serif" font-size="12.00">U</text>
</g>
<!-- InventarioDisponibilidadProductoContext&#45;&gt;EmpaquetadoTercerosContext -->
<g id="edge12" class="edge">
<title>InventarioDisponibilidadProductoContext&#45;&gt;EmpaquetadoTercerosContext</title>
<path fill="none" stroke="black" stroke-width="2" d="M439.41,-583.56C428.36,-567.5 416.01,-549.56 404.98,-533.54"/>
<text text-anchor="middle" x="501.33" y="-556.04" font-family="sans-serif" font-size="12.00"> &#160;&#160;&#160;&#160;&#160;&#160;&#160;&#160;&#160;&#160;&#160;&#160;&#160;&#160;&#160;&#160;&#160;&#160;&#160;&#160;&#160;&#160;&#160;&#160;&#160;&#160;&#160;&#160;&#160;&#160;&#160;&#160;&#160;&#160;&#160;&#160;&#160;&#160;&#160;</text>
<polygon fill="white" stroke="transparent" points="381.98,-523.54 381.98,-542.54 397.98,-542.54 397.98,-523.54 381.98,-523.54"/>
<polyline fill="none" stroke="black" points="397.98,-523.54 397.98,-542.54 "/>
<text text-anchor="start" x="384.98" y="-529.94" font-family="sans-serif" font-size="12.00">D</text>
<polygon fill="white" stroke="transparent" points="397.98,-523.54 397.98,-542.54 427.98,-542.54 427.98,-523.54 397.98,-523.54"/>
<polygon fill="none" stroke="black" points="397.98,-523.54 397.98,-542.54 427.98,-542.54 427.98,-523.54 397.98,-523.54"/>
<text text-anchor="start" x="400.98" y="-529.94" font-family="sans-serif" font-size="12.00">ACL</text>
<polygon fill="white" stroke="transparent" points="432.41,-574.56 432.41,-591.56 446.41,-591.56 446.41,-574.56 432.41,-574.56"/>
<text text-anchor="start" x="434.41" y="-579.96" font-family="sans-serif" font-size="12.00">U</text>
</g>
<!-- InventarioBodegasPropiasContext -->
<g id="node10" class="node">
<title>InventarioBodegasPropiasContext</title>
<polygon fill="none" stroke="black" stroke-width="2" points="762.72,-765.42 766.22,-762.64 770.29,-759.91 774.93,-757.24 780.11,-754.64 785.83,-752.12 792.06,-749.69 798.78,-747.36 805.97,-745.14 813.62,-743.04 821.69,-741.06 830.17,-739.21 839.03,-737.51 848.24,-735.94 857.79,-734.53 867.64,-733.27 877.76,-732.16 888.14,-731.21 898.74,-730.42 909.53,-729.79 920.49,-729.32 931.59,-729.01 942.8,-728.85 954.1,-728.85 965.44,-729 976.82,-729.3 988.19,-729.74 999.52,-730.32 1010.8,-731.03 1022,-731.87 1033.08,-732.82 1044.02,-733.89 1054.79,-735.07 1065.36,-736.35 1075.72,-737.72 1085.83,-739.18 1095.67,-740.71 1105.21,-742.32 1114.43,-743.99 1123.31,-745.72 1131.82,-747.5 1139.95,-749.32 1147.66,-751.19 1154.95,-753.08 1161.78,-755 1168.15,-756.94 1174.03,-758.9 1179.41,-760.87 1184.27,-762.85 1188.6,-764.83 1192.38,-766.81 1195.6,-768.79 1198.25,-770.76 1200.33,-772.73 1201.81,-774.69 1202.7,-776.63 1202.99,-778.56 1202.68,-780.47 1201.76,-782.37 1200.23,-784.25 1198.1,-786.11 1195.37,-787.95 1192.03,-789.77 1188.11,-791.56 1183.6,-793.33 1178.51,-795.08 1172.86,-796.79 1166.66,-798.48 1159.92,-800.14 1152.67,-801.76 1144.91,-803.35 1136.67,-804.9 1127.98,-806.41 1118.84,-807.87 1109.3,-809.29 1099.37,-810.65 1089.08,-811.95 1078.46,-813.2 1067.55,-814.38 1056.36,-815.49 1044.95,-816.52 1033.33,-817.47 1021.54,-818.34 1009.61,-819.12 997.59,-819.8 985.51,-820.38 973.4,-820.85 961.3,-821.21 949.24,-821.45 937.27,-821.57 925.42,-821.57 913.72,-821.43 902.21,-821.17 890.92,-820.76 879.89,-820.22 869.15,-819.54 858.74,-818.72 848.67,-817.75 838.99,-816.64 829.73,-815.4 820.9,-814.01 812.53,-812.48 804.65,-810.82 797.29,-809.02 790.45,-807.1 784.16,-805.06 778.44,-802.9 773.31,-800.64 768.76,-798.27 764.82,-795.81 761.5,-793.26 758.8,-790.64 756.73,-787.95 755.28,-785.21 754.47,-782.43 754.29,-779.61 754.74,-776.77 755.82,-773.92 757.51,-771.07 759.82,-768.23 762.72,-765.42"/>
<text text-anchor="middle" x="979.83" y="-772.68" font-family="sans-serif" font-size="16.00">InventarioBodegasPropiasContext</text>
</g>
<!-- InventarioBodegasPropiasContext&#45;&gt;EmpaquetadoPropioContext -->
<g id="edge16" class="edge">
<title>InventarioBodegasPropiasContext&#45;&gt;EmpaquetadoPropioContext</title>
<path fill="none" stroke="black" stroke-width="2" d="M1079.16,-738.12C1103.99,-723.77 1127.58,-704.64 1141.83,-679.67 1162.98,-642.59 1167.4,-617.81 1141.83,-583.64 1119.72,-554.08 1041.84,-530.44 967.4,-513.93"/>
<text text-anchor="middle" x="1234.33" y="-628.55" font-family="sans-serif" font-size="12.00"> &#160;&#160;&#160;&#160;&#160;&#160;&#160;&#160;&#160;&#160;&#160;&#160;&#160;&#160;&#160;&#160;&#160;&#160;&#160;&#160;&#160;&#160;&#160;&#160;&#160;&#160;&#160;&#160;&#160;&#160;&#160;&#160;&#160;&#160;&#160;&#160;&#160;&#160;&#160;</text>
<polygon fill="white" stroke="transparent" points="960.4,-504.93 960.4,-521.93 974.4,-521.93 974.4,-504.93 960.4,-504.93"/>
<text text-anchor="start" x="962.4" y="-510.33" font-family="sans-serif" font-size="12.00">D</text>
<polygon fill="white" stroke="transparent" points="1072.16,-729.12 1072.16,-746.12 1086.16,-746.12 1086.16,-729.12 1072.16,-729.12"/>
<text text-anchor="start" x="1074.16" y="-734.52" font-family="sans-serif" font-size="12.00">U</text>
</g>
<!-- InventarioBodegasPropiasContext&#45;&gt;EmpaquetadoTercerosContext -->
<g id="edge14" class="edge">
<title>InventarioBodegasPropiasContext&#45;&gt;EmpaquetadoTercerosContext</title>
<path fill="none" stroke="black" stroke-width="2" d="M982.46,-729.08C984.24,-679.19 983.52,-604.24 964.83,-583.64 908.66,-521.72 674.46,-547.36 591.83,-534.64 562.98,-530.19 532.24,-524.25 503.19,-518.07"/>
<text text-anchor="middle" x="1058.33" y="-628.55" font-family="sans-serif" font-size="12.00"> &#160;&#160;&#160;&#160;&#160;&#160;&#160;&#160;&#160;&#160;&#160;&#160;&#160;&#160;&#160;&#160;&#160;&#160;&#160;&#160;&#160;&#160;&#160;&#160;&#160;&#160;&#160;&#160;&#160;&#160;&#160;&#160;&#160;&#160;&#160;&#160;&#160;&#160;&#160;</text>
<polygon fill="white" stroke="transparent" points="480.19,-508.07 480.19,-527.07 496.19,-527.07 496.19,-508.07 480.19,-508.07"/>
<polyline fill="none" stroke="black" points="496.19,-508.07 496.19,-527.07 "/>
<text text-anchor="start" x="483.19" y="-514.47" font-family="sans-serif" font-size="12.00">D</text>
<polygon fill="white" stroke="transparent" points="496.19,-508.07 496.19,-527.07 526.19,-527.07 526.19,-508.07 496.19,-508.07"/>
<polygon fill="none" stroke="black" points="496.19,-508.07 496.19,-527.07 526.19,-527.07 526.19,-508.07 496.19,-508.07"/>
<text text-anchor="start" x="499.19" y="-514.47" font-family="sans-serif" font-size="12.00">ACL</text>
<polygon fill="white" stroke="transparent" points="975.46,-720.08 975.46,-737.08 989.46,-737.08 989.46,-720.08 975.46,-720.08"/>
<text text-anchor="start" x="977.46" y="-725.48" font-family="sans-serif" font-size="12.00">U</text>
</g>
<!-- InventarioBodegasPropiasContext&#45;&gt;InventarioDisponibilidadProductoContext -->
<g id="edge15" class="edge">
<title>InventarioBodegasPropiasContext&#45;&gt;InventarioDisponibilidadProductoContext</title>
<path fill="none" stroke="black" stroke-width="2" d="M842.36,-736.83C767.58,-715.8 675.59,-689.94 601.98,-669.24"/>
<text text-anchor="middle" x="816.33" y="-701.07" font-family="sans-serif" font-size="12.00"> &#160;&#160;&#160;&#160;&#160;&#160;&#160;&#160;&#160;&#160;&#160;&#160;&#160;&#160;&#160;&#160;&#160;&#160;&#160;&#160;&#160;&#160;&#160;&#160;&#160;&#160;&#160;&#160;&#160;&#160;&#160;&#160;&#160;&#160;&#160;&#160;&#160;&#160;&#160;</text>
<polygon fill="white" stroke="transparent" points="594.98,-660.24 594.98,-677.24 608.98,-677.24 608.98,-660.24 594.98,-660.24"/>
<text text-anchor="start" x="596.98" y="-665.64" font-family="sans-serif" font-size="12.00">D</text>
<polygon fill="white" stroke="transparent" points="835.36,-727.83 835.36,-744.83 849.36,-744.83 849.36,-727.83 835.36,-727.83"/>
<text text-anchor="start" x="837.36" y="-733.23" font-family="sans-serif" font-size="12.00">U</text>
</g>
<!-- OrdenesContext -->
<g id="node11" class="node">
<title>OrdenesContext</title>
<polygon fill="none" stroke="black" stroke-width="2" points="809.71,-1107.73 801.69,-1108.14 793.68,-1108.43 785.7,-1108.59 777.79,-1108.63 769.98,-1108.54 762.31,-1108.32 754.79,-1107.98 747.47,-1107.5 740.36,-1106.91 733.48,-1106.19 726.88,-1105.34 720.56,-1104.38 714.54,-1103.29 708.84,-1102.09 703.49,-1100.78 698.48,-1099.36 693.84,-1097.84 689.57,-1096.21 685.68,-1094.49 682.17,-1092.68 679.06,-1090.78 676.33,-1088.8 673.99,-1086.76 672.03,-1084.64 670.46,-1082.47 669.26,-1080.24 668.43,-1077.97 667.96,-1075.65 667.84,-1073.31 668.07,-1070.94 668.61,-1068.55 669.48,-1066.15 670.65,-1063.76 672.11,-1061.36 673.84,-1058.98 675.84,-1056.62 678.09,-1054.28 680.57,-1051.98 683.27,-1049.72 686.19,-1047.51 689.3,-1045.35 692.59,-1043.25 696.06,-1041.22 699.7,-1039.26 703.48,-1037.37 707.41,-1035.57 711.47,-1033.85 715.67,-1032.23 719.98,-1030.7 724.41,-1029.27 728.94,-1027.94 733.58,-1026.72 738.32,-1025.6 743.15,-1024.6 748.07,-1023.71 753.08,-1022.93 758.18,-1022.27 763.36,-1021.72 768.61,-1021.29 773.94,-1020.98 779.34,-1020.78 784.81,-1020.7 790.34,-1020.74 795.93,-1020.9 801.57,-1021.16 807.25,-1021.54 812.97,-1022.03 818.72,-1022.63 824.49,-1023.34 830.27,-1024.15 836.05,-1025.06 841.82,-1026.07 847.55,-1027.18 853.25,-1028.38 858.88,-1029.67 864.45,-1031.04 869.92,-1032.5 875.28,-1034.04 880.51,-1035.65 885.59,-1037.33 890.5,-1039.08 895.22,-1040.89 899.73,-1042.76 904.01,-1044.69 908.03,-1046.66 911.77,-1048.68 915.22,-1050.74 918.36,-1052.84 921.16,-1054.97 923.6,-1057.12 925.67,-1059.29 927.36,-1061.48 928.64,-1063.68 929.5,-1065.88 929.93,-1068.08 929.92,-1070.28 929.47,-1072.47 928.56,-1074.64 927.2,-1076.79 925.38,-1078.92 923.09,-1081.01 920.35,-1083.06 917.17,-1085.07 913.53,-1087.04 909.47,-1088.94 904.98,-1090.79 900.09,-1092.58 894.81,-1094.29 889.16,-1095.93 883.15,-1097.49 876.83,-1098.96 870.19,-1100.35 863.29,-1101.64 856.14,-1102.83 848.76,-1103.93 841.2,-1104.91 833.49,-1105.79 825.64,-1106.55 817.71,-1107.2 809.71,-1107.73"/>
<text text-anchor="middle" x="793.83" y="-1060.39" font-family="sans-serif" font-size="16.00">OrdenesContext</text>
</g>
<!-- OrdenesContext&#45;&gt;IntegracionBodegasTercerosContext -->
<g id="edge17" class="edge">
<title>OrdenesContext&#45;&gt;IntegracionBodegasTercerosContext</title>
<path fill="none" stroke="black" stroke-width="2" d="M745.74,-1023.77C722.53,-1004.74 694.73,-981.95 671.45,-962.86"/>
<text text-anchor="middle" x="793.33" y="-992.12" font-family="sans-serif" font-size="12.00"> &#160;&#160;&#160;&#160;&#160;&#160;&#160;&#160;&#160;&#160;&#160;&#160;&#160;&#160;&#160;&#160;&#160;&#160;&#160;&#160;&#160;&#160;&#160;&#160;&#160;&#160;&#160;&#160;&#160;&#160;&#160;&#160;&#160;&#160;&#160;&#160;&#160;&#160;&#160;</text>
<polygon fill="white" stroke="transparent" points="648.45,-952.86 648.45,-971.86 664.45,-971.86 664.45,-952.86 648.45,-952.86"/>
<polyline fill="none" stroke="black" points="664.45,-952.86 664.45,-971.86 "/>
<text text-anchor="start" x="651.45" y="-959.26" font-family="sans-serif" font-size="12.00">D</text>
<polygon fill="white" stroke="transparent" points="664.45,-952.86 664.45,-971.86 694.45,-971.86 694.45,-952.86 664.45,-952.86"/>
<polygon fill="none" stroke="black" points="664.45,-952.86 664.45,-971.86 694.45,-971.86 694.45,-952.86 664.45,-952.86"/>
<text text-anchor="start" x="667.45" y="-959.26" font-family="sans-serif" font-size="12.00">ACL</text>
<polygon fill="white" stroke="transparent" points="738.74,-1014.77 738.74,-1031.77 752.74,-1031.77 752.74,-1014.77 738.74,-1014.77"/>
<text text-anchor="start" x="740.74" y="-1020.17" font-family="sans-serif" font-size="12.00">U</text>
</g>
<!-- OrdenesContext&#45;&gt;InventarioBodegasPropiasContext -->
<g id="edge18" class="edge">
<title>OrdenesContext&#45;&gt;InventarioBodegasPropiasContext</title>
<path fill="none" stroke="black" stroke-width="2" d="M847.5,-1026.99C856.64,-1019.33 865.53,-1010.8 872.83,-1001.72 917.44,-946.26 948.99,-869.14 965.79,-821.32"/>
<text text-anchor="middle" x="1019.33" y="-918.91" font-family="sans-serif" font-size="12.00"> &#160;&#160;&#160;&#160;&#160;&#160;&#160;&#160;&#160;&#160;&#160;&#160;&#160;&#160;&#160;&#160;&#160;&#160;&#160;&#160;&#160;&#160;&#160;&#160;&#160;&#160;&#160;&#160;&#160;&#160;&#160;&#160;&#160;&#160;&#160;&#160;&#160;&#160;&#160;</text>
<polygon fill="white" stroke="transparent" points="958.79,-812.32 958.79,-829.32 972.79,-829.32 972.79,-812.32 958.79,-812.32"/>
<text text-anchor="start" x="960.79" y="-817.72" font-family="sans-serif" font-size="12.00">D</text>
<polygon fill="white" stroke="transparent" points="840.5,-1017.99 840.5,-1034.99 854.5,-1034.99 854.5,-1017.99 840.5,-1017.99"/>
<text text-anchor="start" x="842.5" y="-1023.39" font-family="sans-serif" font-size="12.00">U</text>
</g>
</g>
</svg>
